<svg width="56" height="56" viewBox="0 0 56 56" fill="none" xmlns="http://www.w3.org/2000/svg">
<g clip-path="url(#clip0_2604_2952)">
<rect x="4" y="4" width="48" height="48" rx="24" fill="#D2ECFF"/>
<rect x="4" y="4" width="48" height="48" rx="24" stroke="#E2F3FF" stroke-width="8"/>
<path d="M20 38C19.45 38 18.9793 37.8043 18.588 37.413C18.1967 37.0217 18.0007 36.5507 18 36V24C18 23.45 18.196 22.9793 18.588 22.588C18.98 22.1967 19.4507 22.0007 20 22H24L28 18L32 22H36C36.55 22 37.021 22.196 37.413 22.588C37.805 22.98 38.0007 23.4507 38 24V36C38 36.55 37.8043 37.021 37.413 37.413C37.0217 37.805 36.5507 38.0007 36 38H20ZM20 36H36V24H20V36ZM22 34H34L30.25 29L27.25 33L25 30L22 34ZM33.5 29C33.9167 29 34.271 28.8543 34.563 28.563C34.855 28.2717 35.0007 27.9173 35 27.5C34.9993 27.0827 34.8537 26.7287 34.563 26.438C34.2723 26.1473 33.918 26.0013 33.5 26C33.082 25.9987 32.728 26.1447 32.438 26.438C32.148 26.7313 32.002 27.0853 32 27.5C31.998 27.9147 32.144 28.269 32.438 28.563C32.732 28.857 33.086 29.0027 33.5 29ZM26.1 22H29.9L28 20.1L26.1 22Z" fill="#1863AA"/>
</g>
<defs>
<clipPath id="clip0_2604_2952">
<rect width="56" height="56" fill="white"/>
</clipPath>
</defs>
</svg>
