<svg width="56" height="56" viewBox="0 0 56 56" fill="none" xmlns="http://www.w3.org/2000/svg">
<rect x="4" y="4" width="48" height="48" rx="24" fill="#D2ECFF"/>
<rect x="4" y="4" width="48" height="48" rx="24" stroke="#E2F3FF" stroke-width="8"/>
<path d="M23.0611 38.0003C24.5841 38.0003 25.9011 37.4573 26.9711 36.3873C28.0941 35.2643 28.6781 33.5333 28.5221 31.8933L37.0861 23.3293C37.6708 22.7434 37.9989 21.9495 37.9985 21.1219C37.9982 20.2942 37.6693 19.5006 37.0841 18.9153C35.9061 17.7353 33.8501 17.7353 32.6721 18.9153L23.7881 27.7993C21.8751 27.9683 19.9811 29.3203 19.9811 31.7183C19.9811 32.0213 20.0021 32.3063 20.0231 32.5783C20.1031 33.6093 20.1321 33.9963 18.5521 34.7863C18.3967 34.8639 18.2642 34.9807 18.1677 35.1251C18.0711 35.2696 18.0139 35.4367 18.0015 35.61C17.9892 35.7833 18.0223 35.9568 18.0974 36.1134C18.1726 36.2701 18.2872 36.4044 18.4301 36.5033C18.5201 36.5633 20.6231 38.0003 23.0611 38.0003C23.0598 38.0003 23.0598 38.0003 23.0611 38.0003ZM34.0861 20.3283C34.2995 20.1236 34.5839 20.0095 34.8795 20.0098C35.1752 20.0102 35.4593 20.125 35.6721 20.3303C35.7761 20.4343 35.8587 20.5577 35.9149 20.6936C35.9712 20.8295 36.0002 20.9752 36.0002 21.1223C36.0002 21.2694 35.9712 21.415 35.9149 21.5509C35.8587 21.6868 35.7761 21.8103 35.6721 21.9143L28.0001 29.5863L26.4141 28.0003L34.0861 20.3283ZM22.0181 32.4233C22.0001 32.1993 21.9811 31.9653 21.9811 31.7173C21.9811 30.1723 23.4261 29.7643 24.1911 29.7643C24.5471 29.7643 24.8901 29.8373 25.1551 29.9703C26.1001 30.4453 26.4151 31.2633 26.5121 31.8663C26.6891 32.9563 26.2951 34.2343 25.5561 34.9733C24.8651 35.6643 24.0491 36.0003 23.0611 36.0003C22.3111 36.0003 21.5811 35.8043 20.9861 35.5733C22.0681 34.6003 22.1071 33.5843 22.0181 32.4233Z" fill="#1863AA"/>
</svg>
