<svg width="56" height="56" viewBox="0 0 56 56" fill="none" xmlns="http://www.w3.org/2000/svg">
<rect x="4" y="4" width="48" height="48" rx="24" fill="#D2ECFF"/>
<rect x="4" y="4" width="48" height="48" rx="24" stroke="#E2F3FF" stroke-width="8"/>
<path d="M19 27C19 23.229 19 21.343 20.172 20.172C21.344 19.001 23.229 19 27 19H29C32.771 19 34.657 19 35.828 20.172C36.999 21.344 37 23.229 37 27V29C37 32.771 37 34.657 35.828 35.828C34.656 36.999 32.771 37 29 37H27C23.229 37 21.343 37 20.172 35.828C19.001 34.656 19 32.771 19 29V27Z" stroke="#1863AA" stroke-width="2"/>
<path d="M32.5 25C33.3284 25 34 24.3284 34 23.5C34 22.6716 33.3284 22 32.5 22C31.6716 22 31 22.6716 31 23.5C31 24.3284 31.6716 25 32.5 25Z" fill="#1863AA"/>
<path d="M28 31C29.6569 31 31 29.6569 31 28C31 26.3431 29.6569 25 28 25C26.3431 25 25 26.3431 25 28C25 29.6569 26.3431 31 28 31Z" stroke="#1863AA" stroke-width="2"/>
</svg>
