<svg width="56" height="56" viewBox="0 0 56 56" fill="none" xmlns="http://www.w3.org/2000/svg">
<rect x="4" y="4" width="48" height="48" rx="24" fill="#D2ECFF"/>
<rect x="4" y="4" width="48" height="48" rx="24" stroke="#E2F3FF" stroke-width="8"/>
<path d="M19.3379 33C20.2157 34.5204 21.4784 35.783 22.9989 36.6607C24.5194 37.5384 26.2442 38.0003 27.9999 38C29.7556 38.0003 31.4804 37.5384 33.0009 36.6607C34.5214 35.783 35.7841 34.5204 36.6619 33M19.3379 23C20.2157 21.4796 21.4784 20.217 22.9989 19.3393C24.5194 18.4616 26.2442 17.9997 27.9999 18C29.7556 17.9997 31.4804 18.4616 33.0009 19.3393C34.5214 20.217 35.7841 21.4796 36.6619 23" stroke="#1863AA" stroke-width="1.5" stroke-linecap="round" stroke-linejoin="round"/>
<path d="M29 37.9498C29 37.9498 30.408 36.0968 31.295 32.9998M29 18.0498C29 18.0498 30.408 19.9018 31.295 22.9998M27 37.9498C27 37.9498 25.592 36.0978 24.705 32.9998M27 18.0498C27 18.0498 25.592 19.9018 24.705 22.9998M25 25.9998L26.5 30.9998L28 25.9998L29.5 30.9998L31 25.9998M17 25.9998L18.5 30.9998L20 25.9998L21.5 30.9998L23 25.9998M33 25.9998L34.5 30.9998L36 25.9998L37.5 30.9998L39 25.9998" stroke="#1863AA" stroke-width="1.5" stroke-linecap="round" stroke-linejoin="round"/>
</svg>
